<?xml version="1.0" encoding="UTF-8"?>
<svg width="19px" height="22px" viewBox="0 0 19 22" version="1.1" xmlns="http://www.w3.org/2000/svg" xmlns:xlink="http://www.w3.org/1999/xlink">
    <!-- Generator: Sketch 49.3 (51167) - http://www.bohemiancoding.com/sketch -->
    <title>Page 1</title>
    <desc>Created with Sketch.</desc>
    <defs></defs>
    <g id="Page-1" stroke="none" stroke-width="1" fill="none" fill-rule="evenodd">
        <g id="Aval_Simulador_01_A" transform="translate(-37.000000, -190.000000)" fill="#525252">
            <path d="M53.5,204.5 L41,204.5 L41,203.6 C41,201.6 45.1666667,200.5 47.25,200.5 C49.3333333,200.5 53.5,201.6 53.5,203.6 L53.5,204.5 Z M46.2111012,194.051431 C48.1476733,193.682657 49.8173427,195.352327 49.4485688,197.288899 C49.2438077,198.364659 48.364659,199.244826 47.2888988,199.448569 C45.3523267,199.817343 43.6826573,198.147673 44.0514312,196.211101 C44.2551736,195.135341 45.135341,194.255174 46.2111012,194.051431 Z M53.9444444,190.5 L39.5555556,190.5 C38.4147222,190.5 37.5,191.421429 37.5,192.547619 L37.5,206.880952 C37.5,208.011238 38.4208889,208.928571 39.5555556,208.928571 L43.6666667,208.928571 L46.75,212 L49.8333333,208.928571 L53.9444444,208.928571 C55.075,208.928571 56,208.007143 56,206.880952 L56,192.547619 C56,191.421429 55.075,190.5 53.9444444,190.5 Z" id="Page-1"></path>
        </g>
    </g>
</svg>