<?xml version="1.0" encoding="UTF-8"?>
<svg width="9px" height="9px" viewBox="0 0 9 9" version="1.1" xmlns="http://www.w3.org/2000/svg" xmlns:xlink="http://www.w3.org/1999/xlink">
    <!-- Generator: Sketch 49.3 (51167) - http://www.bohemiancoding.com/sketch -->
    <title>Icon_Help@3x</title>
    <desc>Created with Sketch.</desc>
    <defs>
        <polygon id="path-1" points="0.0001275 0 8.5 0 8.5 8.5 0.0001275 8.5"></polygon>
    </defs>
    <g id="Page-1" stroke="none" stroke-width="1" fill="none" fill-rule="evenodd">
        <g id="Aval_Simulador_02_A" transform="translate(-202.000000, -150.000000)">
            <g id="Icon_Help" transform="translate(202.000000, 150.000000)">
                <mask id="mask-2" fill="white">
                    <use xlink:href="#path-1"></use>
                </mask>
                <g id="Clip-2"></g>
                <path d="M5.5548775,3.93125 L5.1723775,4.32225 C4.8663775,4.6325 4.6751275,4.8875 4.6751275,5.525 L3.8251275,5.525 L3.8251275,5.3125 C3.8251275,4.845 4.0163775,4.42 4.3223775,4.10975 L4.8493775,3.57425 C5.0066275,3.42125 5.1001275,3.20875 5.1001275,2.975 C5.1001275,2.5075 4.7172025,2.125 4.2501275,2.125 C3.7826275,2.125 3.4001275,2.5075 3.4001275,2.975 L2.5501275,2.975 C2.5501275,2.03575 3.3108775,1.275 4.2501275,1.275 C5.1893775,1.275 5.9501275,2.03575 5.9501275,2.975 C5.9501275,3.349 5.7967025,3.689 5.5548775,3.93125 Z M3.8251275,7.225 L4.6751275,7.225 L4.6751275,6.375 L3.8251275,6.375 L3.8251275,7.225 Z M0.0001275,4.25 C0.0001275,6.596 1.9041275,8.5 4.2501275,8.5 C6.5957025,8.5 8.5001275,6.596 8.5001275,4.25 C8.5001275,1.904 6.5957025,0 4.2501275,0 C1.9041275,0 0.0001275,1.904 0.0001275,4.25 Z" id="Fill-1" fill="#5643FC" mask="url(#mask-2)"></path>
            </g>
        </g>
    </g>
</svg>