<?xml version="1.0" encoding="UTF-8"?>
<svg width="20px" height="19px" viewBox="0 0 20 19" version="1.1" xmlns="http://www.w3.org/2000/svg" xmlns:xlink="http://www.w3.org/1999/xlink">
    <!-- Generator: Sketch 49.3 (51167) - http://www.bohemiancoding.com/sketch -->
    <title>Page 1@3x</title>
    <desc>Created with Sketch.</desc>
    <defs></defs>
    <g id="Page-1" stroke="none" stroke-width="1" fill="none" fill-rule="evenodd">
        <g id="Aval_Simulador_02_A" transform="translate(-177.000000, -89.000000)" fill="#525252">
            <path d="M191.5,104.3125 L193.178125,106 L194.5,104.678125 L192.811563,103 L191.5,104.3125 Z M194,99.5 L196.5,99.5 L196.5,97.5 L194,97.5 L194,99.5 Z M189.875,93.70875 L189.875,89.5 L184.625,89.5 L184.625,93.70875 C183.05875,94.61875 182,96.3075 182,98.25 C182,101.145375 184.35375,103.5 187.25,103.5 C190.145375,103.5 192.5,101.145375 192.5,98.25 C192.5,96.3075 191.44125,94.61875 189.875,93.70875 Z M177.5,99.5 L180,99.5 L180,97.5 L177.5,97.5 L177.5,99.5 Z M186.5,108 L188,108 L188,105.5 L186.5,105.5 L186.5,108 Z M179.5,104.682243 L180.821875,106 L182.5,104.317757 L181.178125,103 L179.5,104.682243 Z" id="Page-1"></path>
        </g>
    </g>
</svg>