<?xml version="1.0" encoding="UTF-8"?>
<svg width="19px" height="19px" viewBox="0 0 19 19" version="1.1" xmlns="http://www.w3.org/2000/svg" xmlns:xlink="http://www.w3.org/1999/xlink">
    <!-- Generator: Sketch 49.3 (51167) - http://www.bohemiancoding.com/sketch -->
    <title>Group 7@3x</title>
    <desc>Created with Sketch.</desc>
    <defs></defs>
    <g id="Page-1" stroke="none" stroke-width="1" fill="none" fill-rule="evenodd">
        <g id="Aval_Simulador_03_A" transform="translate(-661.000000, -285.000000)">
            <g id="Group-7" transform="translate(661.000000, 285.000000)">
                <circle id="Oval-2" fill="#FFFFFF" cx="9.50666667" cy="9.18666667" r="8.96"></circle>
                <g id="Page-1" transform="translate(6.022222, 5.702222)" fill="#FC6666">
                    <path d="M1.50162963,3.23140741 C2.09896296,4.40533333 3.06133333,5.36355556 4.23525926,5.96503704 L5.14785185,5.05244444 C5.25985185,4.94044444 5.42577778,4.90311111 5.57096296,4.95288889 C6.03555556,5.10637037 6.53748148,5.18933333 7.05185185,5.18933333 C7.28,5.18933333 7.46666667,5.376 7.46666667,5.60414815 L7.46666667,7.05185185 C7.46666667,7.28 7.28,7.46666667 7.05185185,7.46666667 C3.15674074,7.46666667 0,4.30992593 0,0.414814815 C0,0.186666667 0.186666667,0 0.414814815,0 L1.86666667,0 C2.09481481,0 2.28148148,0.186666667 2.28148148,0.414814815 C2.28148148,0.933333333 2.36444444,1.43111111 2.51792593,1.8957037 C2.56355556,2.04088889 2.53037037,2.20266667 2.41422222,2.31881481 L1.50162963,3.23140741 Z" id="Fill-1"></path>
                </g>
            </g>
        </g>
    </g>
</svg>